# xmcd CD database file
#
# Track frame offsets:
#	150
#	13421
#	33846
#	44534
#	62679
#	82444
#	97378
#	116956
#	131259
#	149047
#	162002
#	180897
#	199772
#	212812
#	225735
#	244160
#	262265
#	278888
#	295228
#	311973
#
# Disc length: 4373 seconds
#
# Revision: 0
# Processed by: cddbd v1.5.2PL0 Copyright (c) Steve Scherf et al.
# Submitted via: CDex 1.70beta2
#
DISCID=41111314
DTITLE=Country Hits - 100 Essential Tracks Country Hits CD 4
DYEAR=2009
DGENRE=Country
TTITLE0=Joy Lynn White - Tonight the Heartache's on me
TTITLE1=Alan Jackson - Remember when
TTITLE2=Dwight Yoakam - Crazy little thing called love
TTITLE3=Leslie Satcher - Love letters from old Mexico
TTITLE4=Clint Black - Like the rain
TTITLE5=Alabama - Born country
TTITLE6=Dan Fogelberg - Run for the roses
TTITLE7=Michael Nesmith - Silver Moon
TTITLE8=Linda Ronstadt - Blue Bayou
TTITLE9=Gram Parsons - Streets of baltimore
TTITLE10=Juice Newton - Angel of the morning
TTITLE11=Rodney Crowell - Still learning how to fly
TTITLE12=Jimmy Dale Gilmore - Tonight I think I'm gonna
TTITLE13=Collin Raye - If I were you
TTITLE14=K.T. Oslin - Do ya
TTITLE15=Rosanne Cash - Runaway Train
TTITLE16=Carlene Carter - Unbreakable heart
TTITLE17=Shenandoah - Ghost in this house
TTITLE18=Keith Whiteley - When you say nothing at all
TTITLE19=Randy Travis - Forever and ever amen
EXTD=YEAR: 2009
EXTT0=
EXTT1=
EXTT2=
EXTT3=
EXTT4=
EXTT5=
EXTT6=
EXTT7=
EXTT8=
EXTT9=
EXTT10=
EXTT11=
EXTT12=
EXTT13=
EXTT14=
EXTT15=
EXTT16=
EXTT17=
EXTT18=
EXTT19=
PLAYORDER=
